<?xml version="1.0" encoding="UTF-8"?>
<svg xmlns="http://www.w3.org/2000/svg" width="1254" height="1254" viewBox="0 0 1254 1254">
  <rect width="100%" height="100%" fill="#fcb314"/>
  <path d="M 637 538 L 620 534 L 605 534 L 583 538 L 550 552 L 529 567 L 528 626 L 553 606 L 579 596 L 598 598 L 604 606 L 605 620 L 602 632 L 560 645 L 537 660 L 521 676 L 506 701 L 498 728 L 497 764 L 503 785 L 518 800 L 528 803 L 550 802 L 569 794 L 588 780 L 593 783 L 595 791 L 643 785 L 651 781 L 649 746 L 666 589 L 664 573 L 658 556 L 650 546 Z M 592 678 L 597 681 L 592 732 L 578 747 L 563 750 L 557 746 L 554 740 L 554 720 L 557 709 L 564 696 L 573 687 Z M 815 507 L 803 507 L 793 510 L 777 520 L 763 533 L 758 530 L 757 519 L 707 526 L 703 529 L 672 777 L 674 780 L 728 773 L 731 770 L 749 616 L 761 597 L 771 588 L 785 581 L 803 580 L 805 578 L 816 513 Z M 1017 482 L 992 481 L 983 483 L 964 491 L 950 501 L 937 515 L 925 533 L 906 578 L 896 630 L 895 668 L 897 686 L 902 705 L 911 723 L 922 735 L 937 743 L 962 746 L 989 741 L 1015 729 L 1038 710 L 1030 662 L 1013 677 L 999 685 L 985 689 L 972 689 L 965 686 L 956 676 L 951 653 L 952 638 L 957 635 L 1047 623 L 1051 618 L 1056 581 L 1056 543 L 1053 525 L 1049 513 L 1038 495 Z M 995 534 L 1002 546 L 1003 569 L 1001 582 L 996 585 L 970 589 L 960 587 L 961 569 L 970 545 L 979 535 L 985 532 Z M 1183 470 L 1169 466 L 1144 466 L 1128 470 L 1107 482 L 1092 498 L 1082 516 L 1074 549 L 1075 573 L 1079 587 L 1089 604 L 1129 639 L 1132 644 L 1133 655 L 1129 666 L 1122 673 L 1111 677 L 1098 677 L 1088 674 L 1067 659 L 1065 661 L 1054 712 L 1072 723 L 1087 727 L 1109 728 L 1142 720 L 1168 701 L 1183 677 L 1188 662 L 1191 640 L 1186 609 L 1173 588 L 1133 554 L 1129 545 L 1129 535 L 1133 526 L 1145 517 L 1165 517 L 1185 529 L 1188 528 L 1197 480 Z M 274 468 L 238 466 L 221 469 L 203 475 L 173 492 L 145 519 L 126 545 L 110 575 L 96 612 L 86 654 L 82 685 L 82 730 L 89 771 L 99 798 L 117 825 L 137 841 L 157 849 L 193 851 L 230 843 L 263 825 L 281 810 L 286 803 L 280 738 L 259 760 L 235 775 L 214 781 L 194 780 L 182 774 L 168 758 L 159 732 L 156 704 L 158 661 L 164 627 L 176 591 L 184 575 L 197 557 L 217 540 L 229 535 L 244 533 L 257 535 L 270 541 L 288 559 L 291 558 L 314 494 L 296 477 Z M 408 450 L 354 459 L 348 464 L 303 828 L 305 831 L 357 824 L 365 821 L 386 648 L 401 630 L 415 623 L 424 625 L 428 630 L 429 648 L 409 815 L 417 816 L 465 809 L 470 805 L 492 624 L 491 588 L 484 571 L 479 565 L 468 558 L 460 556 L 434 558 L 418 565 L 401 577 L 396 574 L 411 452 Z M 905 374 L 853 382 L 848 386 L 806 735 L 805 762 L 858 755 L 862 751 L 907 379 Z " fill="#000000" fill-rule="evenodd"/>
</svg>
